<?xml version="1.0" encoding="UTF-8" standalone="no"?>
<svg width="173px" height="25px" viewBox="0 0 173 25" version="1.1" xmlns="http://www.w3.org/2000/svg" xmlns:xlink="http://www.w3.org/1999/xlink" xmlns:sketch="http://www.bohemiancoding.com/sketch/ns">
    <!-- Generator: Sketch 3.4.4 (17249) - http://www.bohemiancoding.com/sketch -->
    <title>Oleg Serediuc</title>
    <desc>Created with Sketch.</desc>
    <defs></defs>
    <g id="Page-1" stroke="none" stroke-width="1" fill="none" fill-rule="evenodd" sketch:type="MSPage">
        <g id="Desktop-HD-Copy" sketch:type="MSArtboardGroup" transform="translate(-101.000000, -57.000000)" fill="#FDFDFD">
            <path d="M109.85,58.45 C104.075,58.45 101,62.45 101,67.4 C101,72.275 103.8,76.325 109.6,76.325 C115.5,76.325 118.425,72.25 118.425,67.375 C118.425,62.225 115.275,58.45 109.85,58.45 L109.85,58.45 Z M109.7,62.1 C112.325,62.1 113.25,64.275 113.25,67.425 C113.25,70.35 112.375,72.675 109.75,72.675 C107.25,72.675 106.2,70.475 106.2,67.325 C106.2,64.125 107.25,62.1 109.7,62.1 L109.7,62.1 Z M125.675,76 L125.675,57.9 L120.8,57.9 L120.8,76 L125.675,76 Z M141.3,70.4 C141.35,70.05 141.35,69.725 141.35,69.275 C141.35,66.025 139.8,62.575 134.725,62.575 C129.95,62.575 127.875,65.6 127.875,69.55 C127.875,72.975 129.675,76.325 134.625,76.325 C139.275,76.325 140.75,73.625 141.225,71.875 L136.45,71.875 C136.2,72.575 135.875,73.05 134.725,73.05 C133.275,73.05 132.775,71.725 132.775,70.4 L141.3,70.4 Z M132.825,67.875 C132.9,66.575 133.4,65.6 134.7,65.6 C136.1,65.6 136.45,66.65 136.475,67.875 L132.825,67.875 Z M156.55,66.65 C156.55,65.125 156.575,63.9 156.6,62.9 L151.875,62.9 C151.85,63.125 151.775,63.775 151.75,64.1 C151.55,63.5 150.625,62.575 148.525,62.575 C145.25,62.575 142.9,65.375 142.9,69.45 C142.9,72.925 144.775,75.725 148.225,75.725 C150.075,75.725 151.075,75.075 151.75,74.075 L151.75,74.775 C151.75,76.925 151.4,77.925 149.7,77.925 C148.6,77.925 148.175,77.45 148,76.75 L143.2,76.75 C143.325,78.225 144.25,81.05 149.525,81.05 C155.05,81.05 156.55,78.325 156.55,74.05 L156.55,66.65 Z M147.9,69.225 C147.9,66.825 148.825,65.925 149.95,65.925 C151.675,65.925 151.9,67.125 151.9,69.175 C151.9,71.125 151.525,72.35 149.875,72.35 C148.65,72.35 147.9,71.2 147.9,69.225 L147.9,69.225 Z M164.125,70.775 C164.5,74.1 167.025,76.325 171.8,76.325 C176.85,76.325 179.35,74.075 179.35,70.85 C179.35,68.4 178.275,66.475 172.975,65.15 C170.325,64.5 169.7,64.15 169.7,63.2 C169.7,62.275 170.4,61.85 171.55,61.85 C173.35,61.85 173.825,62.775 173.95,63.7 L178.825,63.7 C178.6,61 176.55,58.45 171.575,58.45 C166.775,58.45 164.65,60.875 164.65,63.775 C164.65,66.1 165.675,67.95 170.75,69.175 C173.475,69.825 174.225,70.25 174.225,71.375 C174.225,72.375 173.525,72.925 172,72.925 C170.375,72.925 169.325,72.275 169.025,70.775 L164.125,70.775 Z M194.4,70.4 C194.45,70.05 194.45,69.725 194.45,69.275 C194.45,66.025 192.9,62.575 187.825,62.575 C183.05,62.575 180.975,65.6 180.975,69.55 C180.975,72.975 182.775,76.325 187.725,76.325 C192.375,76.325 193.85,73.625 194.325,71.875 L189.55,71.875 C189.3,72.575 188.975,73.05 187.825,73.05 C186.375,73.05 185.875,71.725 185.875,70.4 L194.4,70.4 Z M185.925,67.875 C186,66.575 186.5,65.6 187.8,65.6 C189.2,65.6 189.55,66.65 189.575,67.875 L185.925,67.875 Z M196.575,76 L201.45,76 L201.45,70.625 C201.45,67.55 202.7,66.9 205.45,67.025 L205.45,62.575 C203.2,62.6 201.925,63.775 201.425,65.025 C201.425,64.45 201.375,63.3 201.3,62.9 L196.55,62.9 C196.575,64.05 196.575,65.4 196.575,66.65 L196.575,76 Z M220.175,70.4 C220.225,70.05 220.225,69.725 220.225,69.275 C220.225,66.025 218.675,62.575 213.6,62.575 C208.825,62.575 206.75,65.6 206.75,69.55 C206.75,72.975 208.55,76.325 213.5,76.325 C218.15,76.325 219.625,73.625 220.1,71.875 L215.325,71.875 C215.075,72.575 214.75,73.05 213.6,73.05 C212.15,73.05 211.65,71.725 211.65,70.4 L220.175,70.4 Z M211.7,67.875 C211.775,66.575 212.275,65.6 213.575,65.6 C214.975,65.6 215.325,66.65 215.35,67.875 L211.7,67.875 Z M230.625,57.9 L230.625,63.675 C230.275,63.05 229.15,62.575 227.6,62.575 C223.925,62.575 221.775,65.55 221.775,69.525 C221.775,73.375 223.625,76.325 227.075,76.325 C228.95,76.325 230,75.7 230.65,74.75 C230.675,75.075 230.725,75.625 230.8,76 L235.525,76 C235.5,74.875 235.5,73.35 235.5,72.05 L235.5,57.9 L230.625,57.9 Z M226.775,69.4 C226.775,67.075 227.5,65.975 228.875,65.975 C230.625,65.975 230.825,67.225 230.825,69.425 C230.825,71.225 230.65,72.9 228.8,72.9 C227.45,72.9 226.775,71.7 226.775,69.4 L226.775,69.4 Z M238.225,76 L243.1,76 L243.1,62.9 L238.225,62.9 L238.225,76 Z M243.1,61.275 L243.1,57.9 L238.225,57.9 L238.225,61.275 L243.1,61.275 Z M258.6,62.9 L253.75,62.9 L253.75,70.15 C253.75,72.075 253.275,72.725 252.125,72.725 C251.025,72.725 250.7,71.9 250.7,70.7 L250.7,62.9 L245.825,62.9 L245.825,71.5 C245.825,74.625 247.325,76.325 250.125,76.325 C251.775,76.325 252.9,75.85 253.75,74.625 C253.775,74.975 253.8,75.675 253.85,76 L258.625,76 C258.6,74.75 258.6,72.975 258.6,71.825 L258.6,62.9 Z M269.275,71.45 C269.05,72.325 268.625,73.1 267.625,73.1 C266.475,73.1 265.8,72.1 265.8,69.4 C265.8,67 266.425,65.85 267.65,65.85 C268.725,65.85 269.125,66.575 269.25,67.5 L273.9,67.5 C273.825,65.9 272.575,62.575 267.625,62.575 C263.275,62.575 260.825,65.625 260.825,69.575 C260.825,73.3 262.85,76.325 267.45,76.325 C271.975,76.325 273.5,73.825 273.9,71.45 L269.275,71.45 Z" id="Oleg-Serediuc" sketch:type="MSShapeGroup"></path>
        </g>
    </g>
</svg>